<svg width="240" height="71" viewBox="0 0 240 71" fill="none" xmlns="http://www.w3.org/2000/svg">
<g opacity="0.75">
<path d="M2.43319 34.0926C-5.06681 23.0926 6.13319 11.5926 17.5332 17.4926C11.6332 6.09262 23.1332 -5.00738 34.2332 2.39262C44.3332 9.19262 40.0332 39.8926 40.0332 39.8926C40.0332 39.8926 9.23319 44.0926 2.43319 34.0926Z" fill="#17C6A3"/>
</g>
<g opacity="0.75">
<path d="M70.6325 34.0926C78.1325 23.0926 66.9325 11.5926 55.5325 17.4926C61.4325 6.09262 49.9325 -5.00738 38.8325 2.39262C28.7325 9.19262 33.0325 39.8926 33.0325 39.8926C33.0325 39.8926 63.8325 44.0926 70.6325 34.0926Z" fill="#17C6A3"/>
</g>
<path opacity="0.75" d="M70.7331 36.7925C78.2331 47.7925 67.0331 59.2925 55.6331 53.3925C61.5331 64.7925 50.0331 75.8925 38.9331 68.4925C28.8331 61.6925 33.1331 30.9925 33.1331 30.9925C33.1331 30.9925 64.0331 26.6925 70.7331 36.7925Z" fill="#17C6A3"/>
<g opacity="0.75">
<path d="M2.63338 36.7925C-4.86662 47.7925 6.33338 59.2925 17.7334 53.3925C11.8334 64.7925 23.3334 75.8925 34.4334 68.4925C44.5334 61.6925 40.2334 30.9925 40.2334 30.9925C40.2334 30.9925 9.43338 26.6925 2.63338 36.7925Z" fill="#17C6A3"/>
</g>
<path d="M99.3334 51.993C98.6334 51.993 98.0334 51.893 97.4334 51.693C96.8334 51.493 96.3334 51.193 95.9334 50.893C95.8334 50.793 95.7334 50.593 95.7334 50.393C95.7334 50.293 95.7334 50.193 95.8334 50.093C95.9334 49.993 96.0334 49.993 96.1334 49.993C96.2334 49.993 96.3334 50.093 96.5334 50.193C97.3334 50.793 98.3334 51.093 99.3334 51.093C100.133 51.093 100.733 50.993 101.133 50.693C101.533 50.393 101.733 49.993 101.733 49.393C101.733 49.093 101.633 48.793 101.433 48.693C101.233 48.493 100.933 48.293 100.633 48.193C100.333 48.093 99.8334 47.993 99.3334 47.793C98.6334 47.593 98.0334 47.493 97.5334 47.293C97.0334 47.093 96.7334 46.793 96.4334 46.493C96.1334 46.093 96.0334 45.693 96.0334 45.093C96.0334 44.593 96.1334 44.093 96.4334 43.693C96.7334 43.293 97.1334 42.993 97.6334 42.693C98.1334 42.493 98.7334 42.293 99.4334 42.293C100.033 42.293 100.633 42.393 101.133 42.593C101.633 42.793 102.133 43.093 102.533 43.393C102.633 43.493 102.733 43.693 102.733 43.893C102.733 43.993 102.733 44.093 102.633 44.193C102.533 44.293 102.433 44.293 102.433 44.293C102.333 44.293 102.233 44.293 102.033 44.193C101.633 43.793 101.233 43.593 100.833 43.493C100.433 43.393 100.033 43.293 99.5334 43.293C98.8334 43.293 98.2334 43.493 97.8334 43.793C97.4334 44.093 97.2334 44.493 97.2334 45.093C97.2334 45.593 97.4334 45.893 97.7334 46.193C98.1334 46.393 98.6334 46.593 99.4334 46.793C100.233 46.993 100.833 47.193 101.333 47.293C101.833 47.493 102.233 47.693 102.533 47.993C102.833 48.293 103.033 48.793 103.033 49.293C103.033 49.793 102.933 50.293 102.633 50.693C102.333 51.093 101.933 51.393 101.433 51.593C100.633 51.893 100.033 51.993 99.3334 51.993Z" fill="#7B7B7B"/>
<path d="M104.933 51.9932C104.733 51.9932 104.633 51.8932 104.533 51.8932C104.433 51.7932 104.433 51.6932 104.433 51.4932V45.8932C104.433 45.6932 104.433 45.5932 104.533 45.4932C104.633 45.3932 104.733 45.3932 104.933 45.3932C105.133 45.3932 105.233 45.4932 105.333 45.4932C105.433 45.5932 105.533 45.6932 105.533 45.8932V51.4932C105.533 51.6932 105.433 51.7932 105.333 51.8932C105.233 51.9932 105.133 51.9932 104.933 51.9932ZM104.933 43.8932C104.733 43.8932 104.533 43.7932 104.433 43.6932C104.333 43.5932 104.233 43.3932 104.233 43.1932C104.233 42.9932 104.333 42.7932 104.433 42.6932C104.533 42.5932 104.733 42.4932 104.933 42.4932C105.133 42.4932 105.333 42.5932 105.433 42.6932C105.533 42.7932 105.633 42.9932 105.633 43.1932C105.633 43.3932 105.533 43.5932 105.433 43.6932C105.333 43.7932 105.133 43.8932 104.933 43.8932Z" fill="#7B7B7B"/>
<path d="M114.733 45.293C116.133 45.293 116.933 46.193 116.933 47.893V51.493C116.933 51.693 116.833 51.793 116.833 51.893C116.733 51.993 116.633 51.993 116.433 51.993C116.233 51.993 116.133 51.893 116.033 51.893C115.933 51.793 115.933 51.693 115.933 51.493V47.893C115.933 47.293 115.833 46.893 115.633 46.593C115.433 46.293 115.033 46.193 114.633 46.193C114.133 46.193 113.633 46.393 113.333 46.793C113.033 47.193 112.833 47.693 112.833 48.293V51.593C112.833 51.793 112.733 51.893 112.633 51.993C112.533 52.093 112.433 52.093 112.233 52.093C112.033 52.093 111.933 51.993 111.833 51.993C111.733 51.893 111.733 51.793 111.733 51.593V47.993C111.733 47.393 111.633 46.993 111.433 46.693C111.233 46.393 110.833 46.293 110.433 46.293C109.933 46.293 109.433 46.493 109.133 46.893C108.833 47.293 108.633 47.793 108.633 48.393V51.693C108.633 51.893 108.533 51.993 108.433 52.093C108.333 52.193 108.233 52.193 108.033 52.193C107.833 52.193 107.733 52.093 107.633 52.093C107.533 51.993 107.533 51.893 107.533 51.693V46.093C107.533 45.893 107.533 45.793 107.633 45.693C107.733 45.593 107.833 45.593 108.033 45.593C108.233 45.593 108.333 45.693 108.433 45.693C108.533 45.793 108.533 45.893 108.533 46.093V46.693C108.733 46.293 109.033 45.993 109.333 45.793C109.733 45.593 110.133 45.493 110.533 45.493C111.533 45.493 112.233 45.893 112.533 46.793C112.733 46.393 113.033 46.093 113.333 45.893C113.833 45.393 114.233 45.293 114.733 45.293Z" fill="#7B7B7B"/>
<path d="M122.133 45.293C122.733 45.293 123.233 45.393 123.633 45.693C124.033 45.993 124.433 46.393 124.633 46.893C124.833 47.393 125.033 47.993 125.033 48.693C125.033 49.393 124.933 49.993 124.633 50.493C124.433 50.993 124.033 51.393 123.633 51.693C123.233 51.993 122.733 52.093 122.133 52.093C121.633 52.093 121.233 51.993 120.833 51.793C120.433 51.593 120.133 51.293 120.033 50.893V53.993C120.033 54.193 119.933 54.293 119.933 54.393C119.833 54.493 119.733 54.493 119.533 54.493C119.333 54.493 119.233 54.393 119.133 54.393C119.033 54.293 119.033 54.193 119.033 53.993V45.893C119.033 45.693 119.033 45.593 119.133 45.493C119.233 45.393 119.333 45.393 119.533 45.393C119.733 45.393 119.833 45.493 119.933 45.493C120.033 45.593 120.033 45.693 120.033 45.893V46.593C120.233 46.193 120.533 45.893 120.833 45.593C121.233 45.393 121.633 45.293 122.133 45.293ZM121.933 51.093C122.533 51.093 123.033 50.893 123.433 50.493C123.833 50.093 123.933 49.493 123.933 48.693C123.933 47.893 123.733 47.293 123.433 46.893C123.133 46.493 122.633 46.193 121.933 46.193C121.333 46.193 120.833 46.393 120.433 46.793C120.133 47.193 119.933 47.793 119.933 48.593C119.933 49.393 120.133 49.993 120.433 50.393C120.833 50.893 121.333 51.093 121.933 51.093Z" fill="#7B7B7B"/>
<path d="M127.233 51.9932C127.033 51.9932 126.933 51.8932 126.833 51.8932C126.733 51.7932 126.733 51.6932 126.733 51.4932V42.9932C126.733 42.7932 126.733 42.6932 126.833 42.5932C126.933 42.4932 127.033 42.4932 127.233 42.4932C127.433 42.4932 127.533 42.5932 127.633 42.5932C127.733 42.6932 127.833 42.7932 127.833 42.9932V51.4932C127.833 51.6932 127.733 51.7932 127.633 51.8932C127.433 51.9932 127.333 51.9932 127.233 51.9932Z" fill="#7B7B7B"/>
<path d="M130.334 51.9932C130.134 51.9932 130.034 51.8932 129.934 51.8932C129.834 51.7932 129.834 51.6932 129.834 51.4932V45.8932C129.834 45.6932 129.834 45.5932 129.934 45.4932C130.034 45.3932 130.134 45.3932 130.334 45.3932C130.534 45.3932 130.634 45.4932 130.734 45.4932C130.834 45.5932 130.934 45.6932 130.934 45.8932V51.4932C130.934 51.6932 130.834 51.7932 130.734 51.8932C130.534 51.9932 130.434 51.9932 130.334 51.9932ZM130.334 43.8932C130.134 43.8932 129.934 43.7932 129.834 43.6932C129.734 43.5932 129.634 43.3932 129.634 43.1932C129.634 42.9932 129.734 42.7932 129.834 42.6932C129.934 42.5932 130.134 42.4932 130.334 42.4932C130.534 42.4932 130.734 42.5932 130.834 42.6932C130.934 42.7932 131.034 42.9932 131.034 43.1932C131.034 43.3932 130.934 43.5932 130.834 43.6932C130.634 43.7932 130.534 43.8932 130.334 43.8932Z" fill="#7B7B7B"/>
<path d="M135.733 43.3932C135.233 43.3932 134.933 43.5932 134.633 43.8932C134.433 44.1932 134.233 44.5932 134.233 45.0932V45.4932H135.733C135.833 45.4932 136.033 45.4932 136.033 45.5932C136.133 45.6932 136.133 45.7932 136.133 45.8932C136.133 45.9932 136.133 46.0932 136.033 46.1932C135.933 46.2932 135.833 46.2932 135.733 46.2932H134.233V51.4932C134.233 51.6932 134.133 51.7932 134.033 51.8932C133.933 51.9932 133.833 51.9932 133.633 51.9932C133.433 51.9932 133.333 51.8932 133.233 51.8932C133.133 51.7932 133.133 51.6932 133.133 51.4932V46.2932H132.233C132.033 46.2932 131.933 46.2932 131.833 46.1932C131.733 46.0932 131.733 45.9932 131.733 45.8932C131.733 45.7932 131.733 45.6932 131.833 45.5932C131.933 45.4932 132.033 45.4932 132.233 45.4932H133.133V45.1932C133.133 44.3932 133.333 43.7932 133.733 43.2932C134.133 42.7932 134.733 42.5932 135.433 42.4932H135.833C136.033 42.4932 136.233 42.4932 136.333 42.5932C136.433 42.6932 136.533 42.7932 136.533 42.8932C136.533 43.1932 136.333 43.2932 136.033 43.2932L135.733 43.3932Z" fill="#7B7B7B"/>
<path d="M141.933 45.593C142.033 45.393 142.233 45.293 142.433 45.293C142.533 45.293 142.733 45.293 142.833 45.393C142.933 45.493 143.033 45.593 143.033 45.693C143.033 45.793 143.033 45.793 142.933 45.893L139.233 53.993C139.133 54.093 139.133 54.193 139.033 54.193C138.933 54.293 138.833 54.293 138.733 54.293C138.633 54.293 138.533 54.293 138.333 54.193C138.233 54.093 138.233 53.993 138.233 53.893V53.693L139.133 51.693L136.533 45.993V45.793C136.533 45.693 136.633 45.493 136.733 45.393C136.833 45.293 136.933 45.293 137.133 45.293C137.233 45.293 137.333 45.293 137.433 45.393L137.633 45.593L139.833 50.593L141.933 45.593Z" fill="#7B7B7B"/>
<path d="M144.634 51.9932C144.434 51.9932 144.334 51.8932 144.234 51.8932C144.134 51.7932 144.134 51.6932 144.134 51.4932V45.8932C144.134 45.6932 144.134 45.5932 144.234 45.4932C144.334 45.3932 144.434 45.3932 144.634 45.3932C144.834 45.3932 144.934 45.4932 145.034 45.4932C145.134 45.5932 145.234 45.6932 145.234 45.8932V51.4932C145.234 51.6932 145.134 51.7932 145.034 51.8932C144.934 51.9932 144.834 51.9932 144.634 51.9932ZM144.634 43.8932C144.434 43.8932 144.234 43.7932 144.134 43.6932C144.034 43.5932 143.934 43.3932 143.934 43.1932C143.934 42.9932 144.034 42.7932 144.134 42.6932C144.234 42.5932 144.434 42.4932 144.634 42.4932C144.834 42.4932 145.034 42.5932 145.134 42.6932C145.234 42.7932 145.334 42.9932 145.334 43.1932C145.334 43.3932 145.234 43.5932 145.134 43.6932C145.034 43.7932 144.834 43.8932 144.634 43.8932Z" fill="#7B7B7B"/>
<path d="M150.433 45.293C152.033 45.293 152.733 46.193 152.733 47.893V51.493C152.733 51.693 152.633 51.793 152.633 51.893C152.533 51.993 152.433 51.993 152.233 51.993C152.033 51.993 151.933 51.893 151.833 51.893C151.733 51.793 151.733 51.693 151.733 51.493V47.893C151.733 47.293 151.633 46.893 151.333 46.593C151.133 46.293 150.733 46.193 150.233 46.193C149.633 46.193 149.133 46.393 148.833 46.793C148.433 47.193 148.333 47.693 148.333 48.293V51.593C148.333 51.793 148.233 51.893 148.233 51.993C148.133 52.093 148.033 52.093 147.833 52.093C147.633 52.093 147.533 51.993 147.433 51.993C147.333 51.893 147.333 51.793 147.333 51.593V45.993C147.333 45.793 147.333 45.693 147.433 45.593C147.533 45.493 147.633 45.493 147.833 45.493C148.033 45.493 148.133 45.593 148.233 45.593C148.333 45.693 148.333 45.793 148.333 45.993V46.693C148.533 46.293 148.833 45.993 149.233 45.793C149.533 45.393 149.933 45.293 150.433 45.293Z" fill="#7B7B7B"/>
<path d="M160.033 45.293C160.233 45.293 160.333 45.393 160.433 45.393C160.533 45.493 160.533 45.593 160.533 45.793V51.493C160.533 52.493 160.333 53.193 159.833 53.693C159.333 54.193 158.633 54.393 157.633 54.393C156.633 54.393 155.933 54.193 155.233 53.793C154.933 53.593 154.733 53.393 154.733 53.193C154.733 53.093 154.733 52.993 154.833 52.893C154.933 52.793 155.033 52.793 155.133 52.793C155.233 52.793 155.333 52.893 155.633 52.993C155.933 53.193 156.233 53.293 156.533 53.393C156.833 53.493 157.233 53.593 157.633 53.593C158.233 53.593 158.733 53.393 159.033 53.093C159.333 52.793 159.533 52.293 159.533 51.593V50.493C159.333 50.893 159.033 51.193 158.633 51.493C158.233 51.693 157.833 51.793 157.233 51.793C156.633 51.793 156.133 51.693 155.733 51.393C155.333 51.093 154.933 50.693 154.733 50.293C154.533 49.793 154.333 49.193 154.333 48.593C154.333 47.993 154.433 47.393 154.733 46.893C154.933 46.393 155.333 45.993 155.733 45.793C156.133 45.493 156.733 45.393 157.233 45.393C157.733 45.393 158.233 45.493 158.533 45.693C158.933 45.893 159.233 46.193 159.433 46.693V45.993C159.433 45.793 159.433 45.693 159.533 45.593C159.733 45.293 159.833 45.293 160.033 45.293ZM157.533 50.793C158.133 50.793 158.633 50.593 159.033 50.193C159.433 49.793 159.533 49.193 159.533 48.493C159.533 47.793 159.333 47.193 159.033 46.793C158.633 46.393 158.233 46.193 157.533 46.193C156.933 46.193 156.433 46.393 156.033 46.793C155.633 47.193 155.533 47.793 155.533 48.493C155.533 49.193 155.733 49.793 156.033 50.193C156.333 50.593 156.833 50.793 157.533 50.793Z" fill="#7B7B7B"/>
<path d="M173.433 42.3926C173.633 42.3926 173.733 42.4926 173.833 42.5926C173.933 42.6926 173.933 42.7926 173.933 42.9926V51.3926C173.933 51.5926 173.833 51.6926 173.833 51.7926C173.733 51.8926 173.633 51.8926 173.433 51.8926C173.233 51.8926 173.133 51.7926 173.033 51.7926C172.933 51.6926 172.933 51.5926 172.933 51.3926V47.5926H167.333V51.3926C167.333 51.5926 167.233 51.6926 167.133 51.7926C167.033 51.8926 166.933 51.8926 166.733 51.8926C166.533 51.8926 166.433 51.7926 166.333 51.7926C166.233 51.6926 166.233 51.5926 166.233 51.3926V42.9926C166.233 42.7926 166.233 42.6926 166.333 42.5926C166.433 42.4926 166.533 42.3926 166.733 42.3926C166.933 42.3926 167.033 42.4926 167.133 42.5926C167.233 42.6926 167.333 42.7926 167.333 42.9926V46.6926H172.933V42.9926C172.933 42.7926 172.933 42.6926 173.033 42.5926C173.133 42.4926 173.333 42.3926 173.433 42.3926Z" fill="#7B7B7B"/>
<path d="M181.134 50.3928C181.234 50.3928 181.334 50.3928 181.334 50.4928C181.434 50.5928 181.434 50.6928 181.434 50.7928C181.434 50.9928 181.234 51.1928 180.934 51.3928C180.634 51.5928 180.234 51.6928 179.934 51.7928C179.534 51.8928 179.234 51.8928 178.934 51.8928C177.934 51.8928 177.134 51.5928 176.534 50.9928C175.934 50.3928 175.634 49.5928 175.634 48.4928C175.634 47.7928 175.734 47.2928 176.034 46.6928C176.334 46.1928 176.634 45.7928 177.134 45.4928C177.634 45.1928 178.134 45.0928 178.734 45.0928C179.534 45.0928 180.234 45.3928 180.734 45.8928C181.234 46.3928 181.434 47.1928 181.434 48.0928C181.434 48.2928 181.434 48.3928 181.334 48.4928C181.234 48.5928 181.134 48.5928 180.934 48.5928H176.634C176.734 50.0928 177.434 50.8928 178.834 50.8928C179.234 50.8928 179.434 50.8928 179.734 50.7928C180.034 50.6928 180.234 50.5928 180.534 50.3928C180.934 50.4928 181.134 50.3928 181.134 50.3928ZM178.834 46.0928C178.234 46.0928 177.834 46.2928 177.434 46.5928C177.134 46.9928 176.934 47.4928 176.834 48.0928H180.634C180.634 47.3928 180.434 46.8928 180.134 46.5928C179.834 46.2928 179.434 46.0928 178.834 46.0928Z" fill="#7B7B7B"/>
<path d="M185.833 45.293C187.433 45.293 188.333 46.193 188.333 47.893V51.493C188.333 51.693 188.233 51.793 188.233 51.893C188.133 51.993 188.033 51.993 187.833 51.993C187.633 51.993 187.533 51.893 187.433 51.893C187.333 51.793 187.333 51.693 187.333 51.493V50.893C187.133 51.293 186.933 51.593 186.533 51.793C186.233 51.993 185.833 52.093 185.333 52.093C184.933 52.093 184.533 51.993 184.133 51.893C183.733 51.693 183.533 51.493 183.333 51.193C183.133 50.893 183.033 50.593 183.033 50.193C183.033 49.693 183.133 49.293 183.433 49.093C183.733 48.793 184.133 48.593 184.633 48.493C185.233 48.393 186.033 48.293 187.033 48.293H187.333V47.893C187.333 47.393 187.233 46.993 187.033 46.693C186.833 46.393 186.433 46.293 185.933 46.293C185.333 46.293 184.733 46.493 184.133 46.793C183.933 46.993 183.733 46.993 183.633 46.993C183.533 46.993 183.433 46.993 183.333 46.893C183.233 46.793 183.233 46.693 183.233 46.593C183.233 46.493 183.233 46.393 183.333 46.293C183.433 46.193 183.533 46.093 183.733 45.993C184.033 45.793 184.433 45.693 184.833 45.593C185.033 45.293 185.433 45.293 185.833 45.293ZM185.433 51.193C185.933 51.193 186.433 50.993 186.733 50.693C187.033 50.293 187.233 49.893 187.233 49.293V48.893H187.033C186.233 48.893 185.633 48.893 185.233 48.993C184.833 49.093 184.533 49.193 184.333 49.293C184.133 49.493 184.033 49.693 184.033 49.993C184.033 50.293 184.133 50.593 184.433 50.893C184.733 51.093 185.033 51.193 185.433 51.193Z" fill="#7B7B7B"/>
<path d="M190.833 51.9932C190.633 51.9932 190.533 51.8932 190.433 51.8932C190.333 51.7932 190.333 51.6932 190.333 51.4932V42.9932C190.333 42.7932 190.333 42.6932 190.433 42.5932C190.533 42.4932 190.633 42.4932 190.833 42.4932C191.033 42.4932 191.133 42.5932 191.233 42.5932C191.333 42.6932 191.433 42.7932 191.433 42.9932V51.4932C191.433 51.6932 191.333 51.7932 191.233 51.8932C191.133 51.9932 190.933 51.9932 190.833 51.9932Z" fill="#7B7B7B"/>
<path d="M196.333 51.0932C196.633 51.0932 196.833 51.2932 196.833 51.4932C196.833 51.6932 196.733 51.7932 196.633 51.8932C196.533 51.9932 196.333 51.9932 196.133 51.9932H195.733C195.033 51.8932 194.533 51.6932 194.133 51.3932C193.833 50.9932 193.633 50.4932 193.633 49.6932V46.2932H192.733C192.533 46.2932 192.433 46.2932 192.333 46.1932C192.233 46.0932 192.233 45.9932 192.233 45.8932C192.233 45.7932 192.233 45.6932 192.333 45.5932C192.433 45.4932 192.533 45.4932 192.733 45.4932H193.633V43.9932C193.633 43.7932 193.633 43.6932 193.733 43.5932C193.833 43.4932 193.933 43.4932 194.133 43.4932C194.333 43.4932 194.433 43.5932 194.533 43.5932C194.633 43.6932 194.633 43.7932 194.633 43.9932V45.4932H196.133C196.233 45.4932 196.333 45.4932 196.433 45.5932C196.533 45.6932 196.533 45.7932 196.533 45.8932C196.533 45.9932 196.533 46.0932 196.433 46.1932C196.333 46.2932 196.233 46.2932 196.133 46.2932H194.633V49.6932C194.633 50.1932 194.733 50.5932 194.933 50.7932C195.133 50.9932 195.433 51.0932 195.833 51.1932L196.333 51.0932Z" fill="#7B7B7B"/>
<path d="M201.133 45.2928C201.933 45.2928 202.433 45.4928 202.833 45.9928C203.233 46.3928 203.433 47.0928 203.433 47.8928V51.4928C203.433 51.6928 203.333 51.7928 203.333 51.8928C203.233 51.9928 203.133 51.9928 202.933 51.9928C202.733 51.9928 202.633 51.8928 202.533 51.8928C202.433 51.7928 202.433 51.6928 202.433 51.4928V47.8928C202.433 47.2928 202.333 46.8928 202.033 46.5928C201.833 46.2928 201.433 46.1928 200.933 46.1928C200.333 46.1928 199.833 46.3928 199.533 46.7928C199.133 47.1928 199.033 47.6928 199.033 48.2928V51.5928C199.033 51.7928 198.933 51.8928 198.933 51.9928C198.833 52.0928 198.733 52.0928 198.533 52.0928C198.333 52.0928 198.233 51.9928 198.133 51.9928C198.033 51.8928 198.033 51.7928 198.033 51.5928V43.0928C198.033 42.8928 198.033 42.7928 198.133 42.6928C198.233 42.5928 198.333 42.5928 198.533 42.5928C198.733 42.5928 198.833 42.6928 198.933 42.6928C199.033 42.7928 199.033 42.8928 199.033 43.0928V46.5928C199.233 46.1928 199.533 45.8928 199.933 45.6928C200.233 45.3928 200.633 45.2928 201.133 45.2928Z" fill="#7B7B7B"/>
<path d="M208.133 51.9934C207.533 51.9934 207.033 51.8934 206.533 51.5934C206.033 51.2934 205.733 50.8934 205.433 50.3934C205.133 49.8934 205.033 49.2934 205.033 48.5934C205.033 47.8934 205.133 47.2934 205.433 46.7934C205.733 46.2934 206.033 45.8934 206.533 45.5934C207.033 45.2934 207.533 45.1934 208.133 45.1934C208.433 45.1934 208.833 45.2934 209.133 45.2934C209.433 45.3934 209.733 45.4934 210.033 45.6934C210.233 45.7934 210.333 45.8934 210.333 45.9934C210.433 46.0934 210.433 46.1934 210.433 46.2934C210.433 46.3934 210.433 46.4934 210.333 46.5934C210.233 46.6934 210.133 46.6934 210.033 46.6934H209.833C209.733 46.6934 209.733 46.5934 209.633 46.5934C209.533 46.5934 209.533 46.4934 209.533 46.4934C209.333 46.2934 209.133 46.1934 208.833 46.0934C208.633 45.9934 208.333 45.9934 208.033 45.9934C207.333 45.9934 206.833 46.1934 206.533 46.6934C206.133 47.0934 206.033 47.6934 206.033 48.4934C206.033 49.2934 206.233 49.8934 206.533 50.2934C206.933 50.6934 207.433 50.8934 208.033 50.8934C208.333 50.8934 208.633 50.8934 208.833 50.7934C209.033 50.6934 209.233 50.5934 209.533 50.3934C209.633 50.2934 209.733 50.2934 209.833 50.2934C209.933 50.2934 210.033 50.1934 210.033 50.1934C210.133 50.1934 210.233 50.1934 210.233 50.2934C210.333 50.3934 210.333 50.4934 210.333 50.5934C210.333 50.6934 210.333 50.7934 210.233 50.8934C210.133 50.9934 210.033 51.0934 209.933 51.1934C209.633 51.3934 209.333 51.4934 209.033 51.5934C208.833 51.9934 208.533 51.9934 208.133 51.9934Z" fill="#7B7B7B"/>
<path d="M214.533 45.293C216.133 45.293 217.033 46.193 217.033 47.893V51.493C217.033 51.693 216.933 51.793 216.933 51.893C216.833 51.993 216.733 51.993 216.533 51.993C216.333 51.993 216.233 51.893 216.133 51.893C216.033 51.793 216.033 51.693 216.033 51.493V50.893C215.833 51.293 215.633 51.593 215.233 51.793C214.933 51.993 214.533 52.093 214.033 52.093C213.633 52.093 213.233 51.993 212.833 51.893C212.433 51.693 212.233 51.493 212.033 51.193C211.833 50.893 211.733 50.593 211.733 50.193C211.733 49.693 211.833 49.293 212.133 49.093C212.433 48.793 212.833 48.593 213.333 48.493C213.933 48.393 214.733 48.293 215.733 48.293H216.033V47.893C216.033 47.393 215.933 46.993 215.733 46.693C215.533 46.393 215.133 46.293 214.633 46.293C214.033 46.293 213.433 46.493 212.833 46.793C212.633 46.993 212.433 46.993 212.333 46.993C212.233 46.993 212.133 46.993 212.033 46.893C211.933 46.793 211.933 46.693 211.933 46.593C211.933 46.493 211.933 46.393 212.033 46.293C212.133 46.193 212.233 46.093 212.433 45.993C212.733 45.793 213.133 45.693 213.533 45.593C213.733 45.293 214.133 45.293 214.533 45.293ZM214.033 51.193C214.533 51.193 215.033 50.993 215.333 50.693C215.633 50.293 215.833 49.893 215.833 49.293V48.893H215.633C214.833 48.893 214.233 48.893 213.833 48.993C213.433 49.093 213.133 49.193 212.933 49.293C212.733 49.493 212.633 49.693 212.633 49.993C212.633 50.293 212.733 50.593 213.033 50.893C213.333 51.093 213.733 51.193 214.033 51.193Z" fill="#7B7B7B"/>
<path d="M222.133 45.293C222.533 45.293 222.733 45.393 222.733 45.793C222.733 45.893 222.733 45.993 222.633 46.093C222.533 46.193 222.433 46.193 222.233 46.293H221.833C221.233 46.393 220.833 46.593 220.533 46.893C220.233 47.293 220.133 47.693 220.133 48.193V51.393C220.133 51.593 220.033 51.693 219.933 51.793C219.833 51.893 219.733 51.893 219.533 51.893C219.333 51.893 219.233 51.793 219.133 51.793C219.033 51.693 219.033 51.593 219.033 51.393V45.793C219.033 45.593 219.033 45.493 219.133 45.393C219.233 45.293 219.333 45.293 219.533 45.293C219.633 45.293 219.833 45.393 219.933 45.393C220.033 45.493 220.033 45.593 220.033 45.793V46.593C220.233 46.193 220.433 45.893 220.833 45.693C221.133 45.493 221.533 45.393 222.033 45.293H222.133Z" fill="#7B7B7B"/>
<path d="M228.733 50.3928C228.833 50.3928 228.933 50.3928 228.933 50.4928C229.033 50.5928 229.033 50.6928 229.033 50.7928C229.033 50.9928 228.833 51.1928 228.533 51.3928C228.233 51.5928 227.833 51.6928 227.533 51.7928C227.133 51.8928 226.833 51.8928 226.533 51.8928C225.533 51.8928 224.733 51.5928 224.133 50.9928C223.533 50.3928 223.233 49.5928 223.233 48.4928C223.233 47.7928 223.333 47.2928 223.633 46.6928C223.933 46.1928 224.233 45.7928 224.733 45.4928C225.233 45.1928 225.733 45.0928 226.333 45.0928C227.133 45.0928 227.833 45.3928 228.333 45.8928C228.833 46.3928 229.033 47.1928 229.033 48.0928C229.033 48.2928 229.033 48.3928 228.933 48.4928C228.833 48.5928 228.733 48.5928 228.533 48.5928H224.233C224.333 50.0928 225.033 50.8928 226.433 50.8928C226.833 50.8928 227.033 50.8928 227.333 50.7928C227.633 50.6928 227.833 50.5928 228.133 50.3928C228.433 50.4928 228.633 50.3928 228.733 50.3928ZM226.333 46.0928C225.733 46.0928 225.333 46.2928 224.933 46.5928C224.633 46.9928 224.433 47.4928 224.333 48.0928H228.133C228.133 47.3928 227.933 46.8928 227.633 46.5928C227.333 46.2928 226.933 46.0928 226.333 46.0928Z" fill="#7B7B7B"/>
<path d="M108.633 30.7922C108.833 31.0922 108.933 31.2922 108.933 31.5922C108.933 31.9922 108.833 32.1922 108.533 32.4922C108.233 32.6922 107.933 32.7922 107.533 32.7922C107.333 32.7922 107.033 32.6922 106.833 32.5922C106.633 32.4922 106.433 32.2922 106.233 32.0922L103.233 27.4922C102.933 26.9922 102.633 26.6922 102.233 26.4922C101.933 26.2922 101.433 26.1922 100.933 26.1922H98.7334V31.2922C98.7334 31.7922 98.6334 32.0922 98.3334 32.3922C98.0334 32.6922 97.7334 32.7922 97.2334 32.7922C96.7334 32.7922 96.4334 32.6922 96.1334 32.3922C95.8334 32.0922 95.7334 31.7922 95.7334 31.2922V17.8922C95.7334 17.4922 95.8334 17.0922 96.1334 16.8922C96.4334 16.6922 96.7334 16.4922 97.1334 16.4922H102.833C104.633 16.4922 106.033 16.8922 107.033 17.6922C108.033 18.4922 108.433 19.6922 108.433 21.1922C108.433 22.4922 108.033 23.4922 107.333 24.2922C106.633 25.0922 105.633 25.5922 104.333 25.7922C104.733 25.8922 105.133 26.0922 105.533 26.3922C105.833 26.6922 106.233 27.0922 106.533 27.4922L108.633 30.7922ZM102.533 23.8922C103.633 23.8922 104.433 23.6922 104.933 23.2922C105.433 22.8922 105.733 22.1922 105.733 21.3922C105.733 20.4922 105.433 19.8922 104.933 19.4922C104.433 19.0922 103.633 18.8922 102.533 18.8922H98.7334V23.9922H102.533V23.8922Z" fill="#17C6A3"/>
<path d="M120.234 29.5924C120.534 29.5924 120.734 29.6924 120.834 29.8924C121.034 30.0924 121.034 30.3924 121.034 30.6924C121.034 31.1924 120.734 31.5924 120.234 31.8924C119.734 32.1924 119.134 32.3924 118.434 32.5924C117.734 32.7924 117.134 32.8924 116.534 32.8924C114.734 32.8924 113.334 32.3924 112.234 31.2924C111.134 30.2924 110.634 28.7924 110.634 26.9924C110.634 25.8924 110.834 24.7924 111.334 23.9924C111.834 23.0924 112.434 22.3924 113.234 21.8924C114.034 21.3924 115.034 21.1924 116.034 21.1924C117.034 21.1924 117.934 21.3924 118.634 21.8924C119.334 22.2924 119.934 22.9924 120.334 23.7924C120.734 24.5924 120.934 25.5924 120.934 26.6924C120.934 27.3924 120.634 27.6924 120.034 27.6924H113.234C113.334 28.7924 113.634 29.4924 114.134 29.9924C114.634 30.4924 115.334 30.6924 116.334 30.6924C116.834 30.6924 117.234 30.5924 117.634 30.4924C118.034 30.3924 118.434 30.1924 118.934 29.9924C119.734 29.6924 120.034 29.5924 120.234 29.5924ZM116.334 23.1924C115.534 23.1924 114.934 23.3924 114.434 23.8924C113.934 24.3924 113.734 25.0924 113.634 25.9924H118.834C118.834 25.0924 118.534 24.3924 118.134 23.8924C117.634 23.4924 117.034 23.1924 116.334 23.1924Z" fill="#17C6A3"/>
<path d="M129.934 21.1924C130.934 21.1924 131.734 21.3924 132.534 21.8924C133.334 22.3924 133.834 23.0924 134.334 23.9924C134.734 24.8924 134.934 25.8924 134.934 27.0924C134.934 28.2924 134.734 29.2924 134.334 30.0924C133.934 30.9924 133.334 31.5924 132.534 32.0924C131.834 32.5924 130.934 32.7924 129.934 32.7924C129.134 32.7924 128.434 32.5924 127.834 32.2924C127.234 31.9924 126.734 31.4924 126.434 30.8924V35.5924C126.434 35.9924 126.334 36.2924 126.034 36.4924C125.734 36.6924 125.434 36.8924 125.034 36.8924C124.634 36.8924 124.234 36.7924 124.034 36.4924C123.734 36.2924 123.634 35.8924 123.634 35.5924V22.5924C123.634 22.1924 123.734 21.8924 124.034 21.5924C124.334 21.3924 124.634 21.1924 125.034 21.1924C125.434 21.1924 125.834 21.2924 126.034 21.5924C126.334 21.7924 126.434 22.1924 126.434 22.5924V23.1924C126.734 22.5924 127.234 22.0924 127.934 21.6924C128.434 21.3924 129.134 21.1924 129.934 21.1924ZM129.234 30.5924C130.134 30.5924 130.834 30.2924 131.334 29.6924C131.834 29.0924 132.134 28.1924 132.134 27.0924C132.134 25.8924 131.834 24.9924 131.334 24.3924C130.834 23.7924 130.134 23.3924 129.234 23.3924C128.334 23.3924 127.634 23.6924 127.134 24.2924C126.634 24.8924 126.434 25.7924 126.434 26.9924C126.434 28.0924 126.634 28.9924 127.134 29.6924C127.634 30.2924 128.334 30.5924 129.234 30.5924Z" fill="#17C6A3"/>
<path d="M143.533 21.293C143.933 21.293 144.233 21.393 144.433 21.593C144.633 21.793 144.833 22.093 144.833 22.493C144.833 22.893 144.733 23.193 144.533 23.393C144.333 23.593 143.933 23.693 143.433 23.793L142.733 23.893C141.833 23.993 141.133 24.293 140.733 24.793C140.333 25.293 140.133 25.993 140.133 26.693V31.493C140.133 31.893 140.033 32.293 139.733 32.493C139.433 32.693 139.133 32.893 138.733 32.893C138.333 32.893 137.933 32.793 137.733 32.493C137.433 32.293 137.333 31.893 137.333 31.493V22.693C137.333 22.293 137.433 21.893 137.733 21.693C138.033 21.493 138.333 21.293 138.733 21.293C139.133 21.293 139.433 21.393 139.733 21.593C139.933 21.793 140.133 22.093 140.133 22.493V23.393C140.433 22.693 140.833 22.193 141.433 21.893C142.033 21.493 142.633 21.293 143.333 21.293H143.533Z" fill="#17C6A3"/>
<path d="M151.134 32.893C149.934 32.893 148.934 32.693 148.134 32.193C147.234 31.693 146.634 30.993 146.134 30.193C145.634 29.293 145.434 28.293 145.434 27.093C145.434 25.893 145.634 24.893 146.134 23.993C146.634 23.093 147.234 22.493 148.134 21.993C149.034 21.493 150.034 21.293 151.134 21.293C152.234 21.293 153.234 21.493 154.134 21.993C155.034 22.493 155.634 23.093 156.134 23.993C156.634 24.893 156.834 25.893 156.834 27.093C156.834 28.293 156.634 29.293 156.134 30.193C155.634 31.093 155.034 31.793 154.134 32.193C153.234 32.593 152.334 32.893 151.134 32.893ZM151.134 30.593C152.034 30.593 152.734 30.293 153.234 29.693C153.734 29.093 153.934 28.193 153.934 26.993C153.934 25.793 153.734 24.893 153.234 24.293C152.734 23.693 152.034 23.393 151.134 23.393C150.234 23.393 149.534 23.693 149.034 24.293C148.534 24.893 148.334 25.793 148.334 26.993C148.334 28.193 148.534 29.093 149.034 29.693C149.534 30.293 150.234 30.593 151.134 30.593Z" fill="#17C6A3"/>
<path d="M172.033 16.3926C172.433 16.3926 172.833 16.4926 173.133 16.7926C173.433 17.0926 173.533 17.3926 173.533 17.8926V31.2926C173.533 31.6926 173.433 32.0926 173.133 32.3926C172.833 32.6926 172.533 32.7926 172.133 32.7926C171.733 32.7926 171.333 32.6926 171.033 32.3926C170.733 32.0926 170.633 31.7926 170.633 31.2926V25.5926H162.333V31.2926C162.333 31.6926 162.233 32.0926 161.933 32.3926C161.633 32.6926 161.333 32.7926 160.833 32.7926C160.433 32.7926 160.033 32.6926 159.733 32.3926C159.433 32.0926 159.333 31.7926 159.333 31.2926V17.8926C159.333 17.4926 159.433 17.0926 159.733 16.7926C160.033 16.4926 160.333 16.3926 160.833 16.3926C161.233 16.3926 161.633 16.4926 161.933 16.7926C162.233 17.0926 162.333 17.3926 162.333 17.8926V23.2926H170.633V17.8926C170.633 17.4926 170.733 17.0926 171.033 16.7926C171.233 16.5926 171.633 16.3926 172.033 16.3926Z" fill="#17C6A3"/>
<path d="M185.534 29.5924C185.834 29.5924 186.034 29.6924 186.134 29.8924C186.334 30.0924 186.334 30.3924 186.334 30.6924C186.334 31.1924 186.034 31.5924 185.534 31.8924C185.034 32.1924 184.434 32.3924 183.734 32.5924C183.034 32.7924 182.434 32.8924 181.834 32.8924C180.034 32.8924 178.634 32.3924 177.534 31.2924C176.434 30.2924 175.934 28.7924 175.934 26.9924C175.934 25.8924 176.134 24.7924 176.634 23.9924C177.134 23.0924 177.734 22.3924 178.534 21.8924C179.334 21.3924 180.334 21.1924 181.334 21.1924C182.334 21.1924 183.234 21.3924 183.934 21.8924C184.634 22.2924 185.234 22.9924 185.634 23.7924C186.034 24.5924 186.234 25.5924 186.234 26.6924C186.234 27.3924 185.934 27.6924 185.334 27.6924H178.534C178.634 28.7924 178.934 29.4924 179.434 29.9924C179.934 30.4924 180.634 30.6924 181.634 30.6924C182.134 30.6924 182.534 30.5924 182.934 30.4924C183.334 30.3924 183.734 30.1924 184.234 29.9924C185.034 29.6924 185.334 29.5924 185.534 29.5924ZM181.634 23.1924C180.834 23.1924 180.234 23.3924 179.734 23.8924C179.234 24.3924 179.034 25.0924 178.934 25.9924H184.134C184.134 25.0924 183.834 24.3924 183.434 23.8924C182.934 23.4924 182.334 23.1924 181.634 23.1924Z" fill="#17C6A3"/>
<path d="M193.734 21.1924C195.234 21.1924 196.434 21.5924 197.134 22.3924C197.934 23.1924 198.234 24.2924 198.234 25.8924V31.4924C198.234 31.8924 198.134 32.1924 197.834 32.4924C197.634 32.6924 197.234 32.8924 196.834 32.8924C196.434 32.8924 196.134 32.7924 195.834 32.4924C195.634 32.2924 195.434 31.8924 195.434 31.4924V30.9924C195.134 31.5924 194.734 32.0924 194.234 32.3924C193.634 32.6924 193.034 32.8924 192.334 32.8924C191.534 32.8924 190.934 32.6924 190.334 32.3924C189.734 32.0924 189.234 31.6924 188.934 31.0924C188.534 30.5924 188.434 29.9924 188.434 29.2924C188.434 28.4924 188.634 27.7924 189.034 27.3924C189.434 26.8924 190.134 26.5924 191.034 26.3924C191.934 26.1924 193.334 26.0924 194.934 26.0924H195.534V25.5924C195.534 24.8924 195.334 24.2924 195.034 23.9924C194.734 23.6924 194.234 23.4924 193.534 23.4924C193.134 23.4924 192.634 23.5924 192.134 23.6924C191.634 23.7924 191.134 23.9924 190.534 24.2924C190.134 24.4924 189.834 24.5924 189.634 24.5924C189.334 24.5924 189.134 24.4924 188.934 24.2924C188.734 24.0924 188.634 23.7924 188.634 23.4924C188.634 23.1924 188.734 22.9924 188.834 22.7924C188.934 22.5924 189.234 22.3924 189.534 22.2924C190.034 21.9924 190.734 21.7924 191.434 21.5924C192.234 21.2924 192.934 21.1924 193.734 21.1924ZM193.034 30.7924C193.834 30.7924 194.434 30.4924 194.934 29.9924C195.434 29.4924 195.634 28.7924 195.634 27.9924V27.4924H195.234C194.234 27.4924 193.434 27.5924 192.834 27.5924C192.234 27.6924 191.834 27.7924 191.634 28.0924C191.434 28.2924 191.234 28.5924 191.234 28.9924C191.234 29.4924 191.434 29.8924 191.734 30.1924C192.034 30.6924 192.434 30.7924 193.034 30.7924Z" fill="#17C6A3"/>
<path d="M202.633 32.7926C202.233 32.7926 201.833 32.6926 201.633 32.3926C201.333 32.1926 201.233 31.7926 201.233 31.3926V17.7926C201.233 17.3926 201.333 16.9926 201.633 16.7926C201.933 16.5926 202.233 16.3926 202.633 16.3926C203.033 16.3926 203.333 16.4926 203.633 16.7926C203.933 16.9926 204.033 17.3926 204.033 17.7926V31.4926C204.033 31.8926 203.933 32.2926 203.633 32.4926C203.333 32.6926 203.033 32.7926 202.633 32.7926Z" fill="#17C6A3"/>
<path d="M212.833 30.6926C213.633 30.7926 213.933 31.0926 213.933 31.6926C213.933 32.0926 213.733 32.3926 213.433 32.4926C213.133 32.6926 212.733 32.7926 212.133 32.6926H211.533C208.933 32.4926 207.733 31.0926 207.733 28.5926V23.5926H206.633C206.233 23.5926 205.933 23.4926 205.633 23.2926C205.433 23.0926 205.333 22.7926 205.333 22.4926C205.333 22.1926 205.433 21.8926 205.633 21.6926C205.833 21.4926 206.133 21.3926 206.633 21.3926H207.733V19.2926C207.733 18.8926 207.833 18.4926 208.133 18.2926C208.433 18.0926 208.733 17.8926 209.233 17.8926C209.633 17.8926 210.033 17.9926 210.233 18.2926C210.533 18.4926 210.633 18.8926 210.633 19.2926V21.3926H212.533C212.933 21.3926 213.233 21.4926 213.433 21.6926C213.633 21.8926 213.733 22.0926 213.733 22.4926C213.733 22.8926 213.633 23.0926 213.433 23.2926C213.233 23.4926 212.933 23.5926 212.533 23.5926H210.633V28.7926C210.633 29.8926 211.133 30.4926 212.133 30.5926L212.833 30.6926Z" fill="#17C6A3"/>
<path d="M221.933 21.1926C224.533 21.1926 225.833 22.6926 225.833 25.7926V31.3926C225.833 31.7926 225.733 32.1926 225.433 32.3926C225.233 32.5926 224.833 32.7926 224.433 32.7926C224.033 32.7926 223.633 32.6926 223.333 32.3926C223.033 32.1926 222.933 31.7926 222.933 31.3926V25.7926C222.933 24.9926 222.733 24.3926 222.433 23.9926C222.133 23.5926 221.633 23.3926 220.933 23.3926C220.133 23.3926 219.433 23.6926 218.933 24.1926C218.433 24.6926 218.233 25.3926 218.233 26.2926V31.3926C218.233 31.7926 218.133 32.1926 217.833 32.3926C217.533 32.5926 217.233 32.7926 216.833 32.7926C216.433 32.7926 216.033 32.6926 215.733 32.3926C215.533 32.1926 215.333 31.7926 215.333 31.3926V17.7926C215.333 17.3926 215.433 17.0926 215.733 16.7926C216.033 16.5926 216.333 16.3926 216.733 16.3926C217.133 16.3926 217.533 16.4926 217.733 16.7926C218.033 16.9926 218.133 17.2926 218.133 17.6926V22.9926C218.533 22.3926 219.033 21.9926 219.633 21.5926C220.433 21.3926 221.133 21.1926 221.933 21.1926Z" fill="#17C6A3"/>
<path d="M238.733 25.0922C239.033 25.0922 239.233 25.1922 239.433 25.3922C239.633 25.5922 239.733 25.7922 239.733 26.0922C239.733 26.3922 239.633 26.5922 239.433 26.7922C239.233 26.9922 239.033 27.0922 238.733 27.0922H235.133V30.6922C235.133 30.9922 235.033 31.1922 234.833 31.3922C234.633 31.5922 234.433 31.6922 234.133 31.6922C233.833 31.6922 233.633 31.5922 233.433 31.3922C233.233 31.1922 233.133 30.9922 233.133 30.6922V27.0922H229.533C229.233 27.0922 229.033 26.9922 228.833 26.7922C228.633 26.5922 228.533 26.3922 228.533 26.0922C228.533 25.7922 228.633 25.5922 228.833 25.3922C229.033 25.1922 229.233 25.0922 229.533 25.0922H233.133V21.4922C233.133 21.1922 233.233 20.9922 233.433 20.7922C233.633 20.5922 233.833 20.4922 234.133 20.4922C234.433 20.4922 234.633 20.5922 234.833 20.7922C235.033 20.9922 235.133 21.1922 235.133 21.4922V25.0922H238.733Z" fill="#17C6A3"/>
</svg>
